# xmcd
#
# Track frame offsets:
#	150
#	18294
#	39310
#	59260
#	75433
#	101893
#	117660
#	141101
#	159082
#	181683
#	205920
#	225533
#	243477
#	264330
#	285222
#	303509
#
# Disc length: 4445 seconds
#
# Revision: 0
# Processed by: cddbd v1.4PL0 Copyright (c) Steve Scherf et al.
# Submitted via: dBpowerAMP V4.0
#
DISCID=c7115b10
DTITLE=Sky High - On The Cover-25 Years Of Madness Disc 2
DYEAR=2000
DGENRE=Blues
TTITLE0=Track01 I Ain´t Beggin
TTITLE1=Track02´Don´t Move
TTITLE2=Track03 Flowerchild
TTITLE3=Track04 Back To The Woods
TTITLE4=Track05 Fallen Angel
TTITLE5=Track06 We Need You
TTITLE6=Track07 Wild Women
TTITLE7=Track08 Little Bit Of Love
TTITLE8=Track09 Rodeo
TTITLE9=Track10 I Want You
TTITLE10=Track11 I´ll Play The Blues For You
TTITLE11=Track12 On The Outside Blues
TTITLE12=Track13 Heaven Sent
TTITLE13=Track14 Tune Me To Your Station
TTITLE14=Track15 Fat Guitar
TTITLE15=Track16 Ships In The Night
EXTD=
EXTT0=
EXTT1=
EXTT2=
EXTT3=
EXTT4=
EXTT5=
EXTT6=
EXTT7=
EXTT8=
EXTT9=
EXTT10=
EXTT11=
EXTT12=
EXTT13=
EXTT14=
EXTT15=
PLAYORDER=
